<svg width="924" height="206" viewBox="0 0 924 206" fill="none" xmlns="http://www.w3.org/2000/svg">
<path d="M288.529 32.255C285.138 19.6566 275.204 9.7232 262.606 6.33132C239.589 0.0321045 147.524 0.0321045 147.524 0.0321045C147.524 0.0321045 55.4585 0.0321045 32.4422 6.08904C20.086 9.48092 9.91037 19.6566 6.51848 32.255C0.461548 55.2714 0.461548 103 0.461548 103C0.461548 103 0.461548 150.971 6.51848 173.745C9.91037 186.343 19.8437 196.277 32.4422 199.669C55.7008 205.968 147.524 205.968 147.524 205.968C147.524 205.968 239.589 205.968 262.606 199.911C275.204 196.519 285.138 186.586 288.529 173.987C294.586 150.971 294.586 103.242 294.586 103.242C294.586 103.242 294.829 55.2714 288.529 32.255V32.255Z" fill="#FF0000"/>
<path d="M118.208 58.9055V147.094L194.768 103L118.208 58.9055Z" fill="white"/>
<path d="M427.597 187.555C421.782 183.678 417.663 177.621 415.24 169.142C412.818 160.904 411.606 149.76 411.606 136.192V117.537C411.606 103.727 413.06 92.5821 415.725 84.1024C418.632 75.6227 422.993 69.5657 428.808 65.6893C434.865 61.8128 442.618 59.8746 452.309 59.8746C461.758 59.8746 469.511 61.8128 475.325 65.6893C481.14 69.5657 485.259 75.8649 487.924 84.1024C490.589 92.3398 492.042 103.485 492.042 117.537V136.192C492.042 150.002 490.831 160.904 488.166 169.384C485.501 177.621 481.382 183.921 475.568 187.797C469.753 191.674 461.758 193.612 451.824 193.612C441.649 193.369 433.411 191.431 427.597 187.555V187.555ZM460.304 167.204C462 163.085 462.727 156.059 462.727 146.61V106.392C462.727 97.1853 462 90.4016 460.304 86.0406C458.608 81.6796 455.943 79.7414 451.824 79.7414C447.948 79.7414 445.041 81.9219 443.587 86.0406C441.891 90.4016 441.164 97.1853 441.164 106.392V146.61C441.164 156.059 441.891 163.085 443.587 167.204C445.041 171.322 447.948 173.503 452.067 173.503C455.943 173.503 458.608 171.565 460.304 167.204Z" fill="white"/>
<path d="M874.841 136.434V142.976C874.841 151.213 875.083 157.512 875.568 161.631C876.052 165.75 877.021 168.899 878.717 170.595C880.171 172.534 882.594 173.503 885.985 173.503C890.346 173.503 893.254 171.807 894.95 168.415C896.646 165.023 897.372 159.451 897.615 151.455L922.569 152.909C922.812 154.121 922.812 155.574 922.812 157.512C922.812 169.384 919.662 178.348 913.121 184.163C906.579 189.978 897.372 192.885 885.501 192.885C871.206 192.885 861.273 188.282 855.458 179.317C849.644 170.353 846.736 156.543 846.736 137.646V115.114C846.736 95.7317 849.644 81.6796 855.701 72.7153C861.758 63.7511 871.933 59.3901 886.228 59.3901C896.161 59.3901 903.914 61.3283 909.244 64.9624C914.574 68.5966 918.208 74.4113 920.389 81.9219C922.569 89.6747 923.538 100.335 923.538 113.902V135.95H874.841V136.434ZM878.475 82.1641C877.021 84.1024 876.052 87.0097 875.568 91.1284C875.083 95.2471 874.841 101.546 874.841 110.026V119.233H896.161V110.026C896.161 101.789 895.919 95.4894 895.434 91.1284C894.95 86.7674 893.738 83.8601 892.285 82.1641C890.831 80.4682 888.408 79.4991 885.501 79.4991C882.109 79.2568 879.928 80.2259 878.475 82.1641Z" fill="white"/>
<path d="M356.852 134.012L323.902 14.5687H352.733L364.362 68.5966C367.27 81.9219 369.45 93.3089 370.904 102.758H371.63C372.6 95.974 374.78 84.8292 378.172 68.8389L390.286 14.5687H419.117L385.683 134.012V191.189H357.094V134.012H356.852Z" fill="white"/>
<path d="M585.804 62.2974V191.431H563.03L560.607 175.683H559.88C553.823 187.555 544.374 193.612 532.018 193.612C523.538 193.612 517.239 190.704 513.121 185.132C509.002 179.56 507.064 170.838 507.064 158.724V62.2974H536.137V157.028C536.137 162.843 536.864 166.961 538.075 169.384C539.286 171.807 541.467 173.018 544.374 173.018C546.797 173.018 549.22 172.291 551.643 170.595C554.065 169.142 555.761 167.204 556.73 164.781V62.2974H585.804Z" fill="white"/>
<path d="M734.804 62.2974V191.431H712.03L709.608 175.683H708.881C702.824 187.555 693.375 193.612 681.019 193.612C672.539 193.612 666.24 190.704 662.121 185.132C658.002 179.56 656.064 170.838 656.064 158.724V62.2974H685.137V157.028C685.137 162.843 685.864 166.961 687.076 169.384C688.287 171.807 690.468 173.018 693.375 173.018C695.798 173.018 698.22 172.291 700.643 170.595C703.066 169.142 704.762 167.204 705.731 164.781V62.2974H734.804Z" fill="white"/>
<path d="M664.786 38.0696H635.955V191.189H607.609V38.0696H578.778V14.5687H664.786V38.0696Z" fill="white"/>
<path d="M830.988 82.891C829.292 74.6535 826.385 68.8389 822.509 65.2047C818.632 61.5706 813.06 59.6323 806.276 59.6323C800.946 59.6323 795.858 61.086 791.255 64.2356C786.652 67.1429 783.018 71.2617 780.595 76.1072H780.352V8.02725H752.248V191.189H776.234L779.141 179.075H779.868C782.048 183.436 785.44 186.828 790.044 189.493C794.647 191.916 799.492 193.369 805.065 193.369C814.998 193.369 822.024 188.766 826.627 179.802C831.231 170.838 833.653 156.543 833.653 137.403V117.052C833.411 102.273 832.684 90.8861 830.988 82.891V82.891ZM804.338 135.465C804.338 144.914 803.853 152.182 803.127 157.512C802.4 162.843 800.946 166.719 799.25 168.899C797.312 171.08 794.889 172.291 791.982 172.291C789.559 172.291 787.379 171.807 785.44 170.595C783.502 169.384 781.806 167.688 780.595 165.508V92.3398C781.564 88.9479 783.26 86.0406 785.683 83.6178C788.105 81.4373 790.77 80.2259 793.435 80.2259C796.343 80.2259 798.766 81.4373 800.219 83.6178C801.915 86.0406 802.884 89.917 803.611 95.2471C804.338 100.819 804.58 108.572 804.58 118.506V135.465H804.338Z" fill="white"/>
</svg>
